<?xml version="1.0" standalone="no"?>
<!DOCTYPE svg PUBLIC "-//W3C//DTD SVG 20010904//EN"
 "http://www.w3.org/TR/2001/REC-SVG-20010904/DTD/svg10.dtd">
<svg version="1.0" xmlns="http://www.w3.org/2000/svg"
 width="128.000000pt" height="128.000000pt" viewBox="0 0 128.000000 128.000000"
 preserveAspectRatio="xMidYMid meet">
<metadata>
Created by potrace 1.14, written by Peter Selinger 2001-2017
</metadata>
<g transform="translate(0.000000,128.000000) scale(0.100000,-0.100000)"
fill="#000000" stroke="none">
<path d="M1153 955 c-39 -17 -74 -66 -80 -115 -5 -32 -1 -43 21 -65 23 -23 32
-26 64 -20 54 10 92 33 92 55 0 23 -17 25 -54 6 -15 -8 -36 -11 -47 -9 -37 10
-13 28 49 36 48 7 63 13 67 29 9 27 -13 76 -39 85 -35 11 -41 11 -73 -2z m45
-47 c19 -19 14 -26 -23 -30 -38 -4 -45 7 -17 28 21 17 25 17 40 2z"/>
<path d="M939 927 c-63 -32 -94 -152 -49 -192 16 -15 26 -16 60 -7 46 11 53
-1 13 -21 -18 -9 -38 -11 -56 -6 -19 5 -32 3 -42 -7 -19 -19 -9 -44 19 -45 11
0 29 -2 38 -4 30 -6 95 34 111 68 8 18 18 64 23 102 13 113 12 120 -13 123
-13 2 -23 -2 -23 -8 0 -6 -4 -8 -10 -5 -20 12 -48 13 -71 2z m59 -83 c2 -19
-3 -38 -13 -48 -18 -18 -54 -22 -56 -6 -1 6 -2 16 -3 23 -1 6 4 25 11 40 20
40 57 34 61 -9z"/>
<path d="M753 895 c-16 -11 -28 -13 -48 -5 -19 7 -33 7 -48 -2 -12 -7 -32 -11
-44 -9 -30 3 -40 -20 -48 -115 -8 -85 -1 -103 28 -81 17 13 25 40 26 95 1 34
35 77 52 66 7 -4 9 -31 5 -75 -5 -58 -4 -70 9 -76 25 -9 37 10 49 83 7 45 17
71 29 78 21 13 37 -5 32 -38 -12 -73 -10 -101 9 -104 27 -6 34 7 41 73 4 33 9
64 12 68 3 4 -3 19 -11 32 -19 29 -60 33 -93 10z"/>
<path d="M503 858 c-6 -7 -13 -36 -17 -65 -7 -64 -13 -80 -34 -88 -18 -7 -43
19 -37 38 12 37 13 96 2 106 -29 24 -55 -37 -57 -130 0 -70 68 -90 140 -39 30
21 39 52 43 145 2 42 -19 59 -40 33z"/>
<path d="M264 832 c-94 -44 -104 -202 -13 -202 53 0 100 34 83 61 -5 9 -22 6
-61 -8 -6 -3 -17 5 -23 17 -24 45 27 105 75 86 17 -6 37 24 27 41 -12 17 -57
20 -88 5z"/>
<path d="M94 810 c-28 -11 -54 -48 -54 -78 0 -17 9 -27 38 -39 47 -19 50 -22
33 -33 -8 -4 -24 -4 -37 0 -28 11 -60 -10 -51 -34 6 -15 25 -20 76 -18 34 2
71 40 71 73 0 31 -13 44 -53 54 -37 10 -20 29 25 29 26 1 34 6 36 22 4 30 -39
42 -84 24z"/>
<path d="M998 615 c-2 -2 -39 -6 -83 -9 -83 -6 -132 -12 -175 -20 -14 -3 -45
-8 -70 -12 -24 -3 -47 -7 -50 -9 -3 -2 -24 -6 -46 -9 -57 -9 -71 -12 -144 -31
-36 -10 -71 -18 -77 -18 -7 0 -13 -5 -13 -10 0 -6 -3 -8 -6 -4 -7 7 -111 -28
-130 -44 -22 -18 -17 -57 9 -73 20 -14 31 -13 112 13 122 39 304 79 440 97 22
3 51 7 64 9 12 2 60 7 105 10 108 9 125 12 142 26 18 15 18 53 -1 69 -13 11
-69 22 -77 15z"/>
<path d="M865 404 c-210 -27 -442 -87 -446 -115 -5 -36 5 -65 26 -73 8 -3 29
0 47 5 18 6 40 12 48 14 8 1 40 10 70 19 55 15 83 21 150 32 19 3 42 7 50 9 8
3 42 7 75 10 120 11 145 27 126 78 -12 32 -37 35 -146 21z"/>
</g>
</svg>
